<svg xmlns="http://www.w3.org/2000/svg" width="61" height="63" viewBox="0 0 61 63"><g><g><g/><g><path d="M30.5 3.453l23.646 19.688H6.683zM19.02 30.74v18.997h-4.284V32.813h-2.228v16.924H7.882V30.74zm13.536 0v18.997h-4.284V32.813h-2.227v16.924h-4.798V30.74zm13.537 0v18.997h-4.284V32.813h-2.228v16.924h-4.797V30.74zm8.567 21.07v3.281H6.34V51.81zM46.607 5.526h4.283v2.072h-4.283zm13.536 19.86h.686v-2.245h-3.256l-10.966-8.98V9.67h6.511V3.28h-8.739v8.98L30.5.69 3.427 23.141H0v7.6h5.654v18.996H4.112v5.354H0v7.599h61v-3.8h-2.227v1.728H2.228v-3.282H61v-2.072h-4.112V49.91h-1.542V32.985h-2.228V49.91H48.32V30.913H61V26.94h-2.227v1.9H2.228v-3.282h57.915z"/></g><g><path d="M30.5 17.619c-1.543 0-2.742-1.209-2.742-2.763 0-1.555 1.199-2.764 2.741-2.764s2.742 1.21 2.742 2.764c0 1.554-1.2 2.763-2.742 2.763zm0-7.599c-2.742 0-4.97 2.245-4.97 4.836 0 2.763 2.228 4.835 4.97 4.835 2.74 0 4.968-2.245 4.968-4.835S33.241 10.02 30.5 10.02z"/></g></g></g></svg>