<svg xmlns="http://www.w3.org/2000/svg" width="57" height="52" viewBox="0 0 57 52"><g><g><g/><g><path fill="#363330" d="M22.06 9.4l4.64 4.504c.48.483 1.12.483 1.44 0L39.02 3.125l2.72 2.735-14.4 14.319-8.16-8.044zm4.48 13.031c.16.161.48.322.8.322.32 0 .48-.16.8-.322L43.98 6.665c.16-.161.32-.483.32-.805 0-.322-.16-.643-.32-.804L39.66.712c-.48-.483-1.12-.483-1.44 0l-10.88 10.78-4.64-4.506c-.48-.482-1.12-.482-1.44 0l-4.32 4.344c-.16.161-.32.483-.32.805 0 .322.16.643.32.804z"/></g><g><path fill="#363330" d="M34.227 44.79c-2.72 1.127-6.4 1.61-9.92 1.61-2.24 0-4-.161-6.08-.805l-2.24-.643h-.48l-7.2-13.836 2.88-1.287c1.92-.805 4-1.288 6.24-1.288 3.36 0 6.72 1.127 9.44 3.218l1.28.965c.16.161.48.161.64.161h9.28c1.44 0 2.4 1.127 2.4 2.574 0 1.448-1.12 2.575-2.4 2.575h-13.44c-.64 0-1.12.482-1.12 1.126 0 .643.48 1.126 1.12 1.126h13.44c2.08 0 3.84-1.448 4.48-3.379l10.56-2.252c.64-.16 1.44.16 1.6.804 0 .161-.64.805-1.28 1.127zm-22.24 4.023L3.026 32.08l2.4-1.609 8.96 16.732zm44.32-14.64c-.64-1.449-2.4-2.414-4-1.931l-9.92 2.091c-.48-2.091-2.24-3.7-4.48-3.7h-8.8l-.96-.644a18.226 18.226 0 0 0-10.72-3.539c-2.4 0-4.8.483-7.04 1.448l-3.04 1.287-.48-.804c-.16-.322-.32-.483-.64-.483s-.64 0-.8.16l-4.32 2.897c-.48.16-.64.804-.32 1.287l9.92 18.662c.16.322.32.483.64.483h.32c.16 0 .48 0 .64-.161l4.32-2.896c.32-.16.48-.482.48-.965l.8.322c2.24.643 4.16.804 6.56.804 3.68 0 7.68-.643 10.56-1.77l19.36-8.205h.16c1.44-.804 2.56-2.574 1.76-4.344z"/></g></g></g></svg>