<svg xmlns="http://www.w3.org/2000/svg" width="65" height="67" viewBox="0 0 65 67"><g><g><g/><g><path fill="#363330" d="M39.638 38.46V28.437c0-.617.456-1.08 1.063-1.08h19.287v-2.004H40.701c-1.67 0-3.037 1.388-3.037 3.084v10.332c0 .154 0 .462.151.617l13.972 18.35c-.759.617-1.67 1.234-2.43 1.85L38.424 45.4c-.304-.309-.76-.463-1.063-.309-.456.154-.76.463-.76.925l1.975 2.93 8.96 11.566c-4.404 2.621-9.568 4.01-15.035 4.01-5.467 0-10.63-1.543-15.035-4.01l8.96-11.566 1.974-2.93c0-.462-.303-.77-.759-.925-.455-.154-.911 0-1.063.309L15.643 59.432c-.912-.617-1.671-1.233-2.43-1.85l13.972-18.196c.151-.155.152-.463.152-.617V28.437c0-1.696-1.367-3.084-3.038-3.084H5.012v2.005h19.287c.608 0 1.063.462 1.063 1.079V38.46L11.694 56.348c-5.923-5.705-9.72-13.724-9.72-22.668 0-17.117 13.669-30.995 30.526-30.995 16.858 0 30.526 13.878 30.526 30.995 0 8.944-3.797 16.963-9.72 22.668zM32.5.68C14.58.68 0 15.484 0 33.68c0 18.196 14.58 33 32.5 33S65 51.876 65 33.68c0-18.196-14.58-33-32.5-33z"/></g><g><path fill="#363330" d="M32.502 15.177c-1.67 0-3.038-1.388-3.038-3.084 0-1.696 1.367-3.084 3.038-3.084 1.67 0 3.037 1.388 3.037 3.084 0 1.696-1.367 3.084-3.037 3.084zm0-8.327c-2.734 0-5.012 2.313-5.012 5.089 0 2.775 2.278 5.089 5.012 5.089 2.733 0 5.011-2.314 5.011-5.09.152-2.775-2.126-5.088-5.011-5.088z"/></g><g><path fill="#363330" d="M24.905 21.35H5.01v2.005h19.44c.455 0 .759-.309.91-.617.152-.463 0-.925-.303-1.08z"/></g><g><path fill="#363330" d="M58.322 21.35H40.249l-.303.154c-.304.309-.456.771-.456 1.234.152.462.456.77.911.77h19.44v-2.004h-1.52z"/></g></g></g></svg>