<svg xmlns="http://www.w3.org/2000/svg" width="64" height="75" viewBox="0 0 64 75"><g><g><g/><g><path fill="#363330" d="M35.987 52.673l-4.187-.992-.997-2.975.598-2.778 2.592-2.579 2.99-.397h3.19l4.984 3.175 3.39 1.19 1.595 2.38-2.592 4.762-2.592 3.77-3.588 4.563-1.994.396-1.196-1.984 1.395-5.753zm2.591 13.094l4.187-.793 3.987-5.357 2.791-3.968 3.19-5.951-2.591-4.167-3.788-1.19-5.583-3.571h-3.987l-3.788.595-3.589 3.571-.797 3.968 1.396 4.563 4.784.992 2.393 1.786-1.196 5.356z"/></g><g><path fill="#363330" d="M58.108 39.972h-6.58l-8.97-5.754-9.97 1.19-2.192 2.381L28.6 35.21c.598-3.174.997-4.563 1.197-5.356.797-.397 3.19-1.39 5.382-2.381h5.782l2.193-4.761 3.19-.596 4.785-1.19c6.38 5.357 10.367 13.292 10.367 22.22v1.389zM7.668 52.47l2.193.595 3.39.397.398 1.984-.997 1.786.2 3.967 3.389 3.175-1.197 2.38C10.46 63.382 6.87 58.82 4.677 53.264zm26.117-38.488c5.582.397 10.766 2.183 14.953 5.158l-3.19.794-4.187.794-1.994 4.563h-4.984c-6.778 2.777-6.778 2.975-6.778 3.77 0 .396-.599 3.372-1.197 5.95l-.199.398 3.788 5.753 3.589-3.77 8.572-.992 8.772 5.556h6.18l4.188 5.753C59.105 61.596 46.943 72.11 32.389 72.11c-5.582 0-10.965-1.587-15.35-4.365l1.993-3.967-4.187-3.571-.2-2.381 1.197-1.786-.798-4.364-4.984-.794-2.392-.595-3.589.992c-.2-.794-.398-1.587-.598-2.58l4.187-2.38v-4.364l1.595-3.572-1.994-.991-1.595 3.57-.2 3.77-2.392 1.587c-.199-.992-.199-2.182-.199-3.174 0-3.968.798-7.737 2.193-11.308l-1.994-.794C1.487 34.814.69 38.98.69 43.146c0 17.26 14.155 31.346 31.5 31.346s31.5-14.086 31.5-31.346c0-16.665-12.959-30.354-29.706-31.346z"/></g><g><path fill="#363330" d="M13.057 2.872c2.79 0 5.183 2.381 5.183 5.158 0 2.778-2.392 5.159-5.183 5.159-2.792 0-5.184-2.381-5.184-5.159 0-2.777 2.392-5.158 5.184-5.158zm0 12.499c3.987 0 7.376-3.373 7.376-7.34 0-3.968-3.39-7.341-7.376-7.341C9.069.69 5.68 4.063 5.68 8.03c0 4.167 3.19 7.341 7.377 7.341z"/></g></g></g></svg>