<svg xmlns="http://www.w3.org/2000/svg" width="59" height="60" viewBox="0 0 59 60"><g><g><g/><g><path d="M27.079 57.146c-.092-.609-.184-1.194-.253-1.803-.07-.562-.162-1.101-.23-1.663-.116-.773-.23-1.523-.369-2.366l-.276-1.663-.483.094a4.95 4.95 0 0 1-.99.117c-1.588 0-2.762-.913-4.166-2.39a309.052 309.052 0 0 0-7.733-7.869c-1.565-1.522-2.808-2.974-2.302-5.317l.115-.491-.483-.07c-.714-.118-1.404-.235-2.095-.329a191.843 191.843 0 0 0-4.465-.702c-1.404-.188-2.37-.797-2.785-1.687-.39-.866-.184-1.967.553-3.115a539.508 539.508 0 0 1 2.485-3.818c.967-1.499 1.934-2.974 2.9-4.473.898-1.406 2.049-2.085 3.614-2.178 2.233-.141 4.65-.352 7.572-.656.576-.07 1.197-.375 1.542-.773C26.09 7.89 33.868 3.205 42.983 1.73 46.71 1.12 50.6.98 54.237.91h.092c2.256 0 3.89 1.71 3.982 4.17.276 7.166-.76 13.748-3.107 19.533-2.417 5.996-6.306 11.336-11.554 15.904a2.989 2.989 0 0 0-.944 1.827c-.253 2.248-.46 4.684-.644 7.705-.092 1.476-.713 2.577-1.864 3.373l-.23.164c-2.808 1.92-5.685 3.888-8.585 5.762-.53.328-1.082.515-1.634.515-1.335 0-2.417-1.1-2.67-2.717zm1.427-7.729l1.22 7.94 2.393-1.616c2.302-1.546 4.465-2.998 6.652-4.497.299-.21.644-.633.69-1.078.138-1.428.276-2.857.368-4.239.047-.422.07-.867.116-1.265l.069-.82zm-14.57-19.323c-.091.421-.207.843-.322 1.265-.276 1.1-.575 2.272-.76 3.443-.114.726.323 1.616.783 2.108a391.051 391.051 0 0 0 5.294 5.434 647.75 647.75 0 0 1 3.936 4.028c.575.61 1.15.867 1.795.867.184 0 .391-.024.598-.07 1.036-.258 2.095-.54 3.107-.82l2.026-.516-16.25-16.536zM53.64 3.44c-1.864 0-3.844.023-5.777.187-8.585.68-15.973 3.77-21.957 9.181-4.488 4.052-7.918 8.526-10.22 13.28l-.137.305 17.699 18.012.3-.14.068-.024c.092-.047.253-.094.391-.188 15.007-8.478 22.349-21.43 21.82-38.482-.047-1.522-.645-2.131-2.118-2.131zM11.658 19.81c-1.795 0-3.015.773-3.844 2.39-.414.796-.943 1.569-1.45 2.318-.23.352-.483.703-.713 1.054l-2.854 4.38 7.802 1.218 5.455-11.664-.782.047c-.323.023-.668.047-1.036.094-.737.07-1.473.14-2.233.14h-.23c-.023.023-.069.023-.115.023z"/></g><g><path d="M1.857 59.838c-.575-.023-1.058-.28-1.289-.703-.207-.35-.207-.772-.023-1.17.115-.211.3-.422.484-.61L11.27 46.933c.46-.469.897-.703 1.312-.703.299 0 .575.14.828.398.553.61.437 1.312-.345 2.108-3.337 3.396-6.767 6.91-10.242 10.4-.23.234-.552.421-.806.562-.069.07-.115.117-.16.14z"/></g><g><path d="M1.578 49.419c-.092-.07-.16-.117-.253-.188-.299-.21-.621-.421-.713-.655C.45 48.177.52 47.45.68 47.264c1.795-1.99 3.728-3.958 5.892-6.02a.985.985 0 0 1 .713-.304c.323 0 .645.164.92.468.507.563.53 1.148.07 1.663a234.65 234.65 0 0 1-5.846 5.926c-.092.094-.3.188-.53.281-.114.047-.207.094-.322.14z"/></g><g><path d="M11.89 59.905c-.091-.047-.16-.117-.253-.164-.276-.187-.598-.398-.667-.585-.161-.445-.138-1.148.023-1.312a132.536 132.536 0 0 1 5.961-6.113c.207-.187.414-.281.645-.281.299 0 .598.164.874.422.414.421.668 1.077.138 1.663a198.653 198.653 0 0 1-5.8 5.902l-.115.117c-.092.094-.3.164-.53.234a.761.761 0 0 1-.275.117z"/></g><g><path d="M40.199 27.54c-4.534-.024-8.102-3.678-8.079-8.339 0-4.567 3.66-8.291 8.148-8.291 4.51 0 8.17 3.724 8.193 8.315 0 2.225-.828 4.286-2.37 5.855a8.088 8.088 0 0 1-5.846 2.46zm.069-14.03c-3.061 0-5.57 2.553-5.616 5.668a5.763 5.763 0 0 0 1.611 4.122c1.036 1.078 2.44 1.663 3.936 1.687h.046c3.107 0 5.639-2.553 5.662-5.692a5.761 5.761 0 0 0-1.657-4.052c-1.082-1.124-2.486-1.733-3.982-1.733z"/></g></g></g></svg>