<svg xmlns="http://www.w3.org/2000/svg" width="69" height="69" viewBox="0 0 69 69"><g><g><g/><g><path d="M55.294 21.155c-.053 8.341-5.257 15.964-13.01 18.966-.213.08-.425.24-.611.213-.531-.133-1.275-.186-1.514-.558-.425-.664.053-1.222.717-1.567 1.514-.77 3.054-1.568 4.54-2.444.372-.213.691-.824.717-1.275.027-3.453-1.354-6.19-4.407-7.89-.478-.265-1.301-.265-1.78-.026-3.45 1.806-6.823 1.806-10.275-.026-.425-.213-1.115-.266-1.54-.08-2.947 1.355-4.965 4.94-4.62 8.155.053.398.372.93.717 1.142 1.407.85 2.814 1.62 4.301 2.337.77.372 1.381.77 1.01 1.674-.346.85-1.09.77-1.806.478-7.435-3.055-12.028-8.474-13.064-16.495-1.38-10.891 5.337-20.215 15.958-22.605 11.47-2.577 23.047 5.658 24.401 17.319.08.93.186 1.806.266 2.682zM26.963 24.45c-3.346-5.605-3-10.598.903-14.21 3.478-3.215 8.868-3.613 12.718-.904 1.991 1.381 3.372 3.267 4.01 5.605.929 3.453.212 6.614-1.806 9.217 1.354 1.381 2.761 2.497 3.744 3.931.956 1.408 1.407 3.108 2.097 4.649 5.842-6.349 6.134-17.983-1.699-25.102C39.47.862 27.706 1.605 20.99 9.441c-6.506 7.597-4.86 18.435.265 23.402.531-3.692 2.416-6.508 5.709-8.394zm7.912-14.636c-4.328-.053-7.965 3.56-8.018 7.863-.027 4.303 3.558 7.969 7.886 7.995 4.301.027 7.965-3.56 7.992-7.889.053-4.277-3.558-7.942-7.86-7.969z"/></g><g><path d="M24.174 65.987c.372-2.152.823-4.543 1.168-6.933.08-.532-.133-1.302-.504-1.7-1.567-1.62-3.213-3.161-4.86-4.728-.77-.744-1.3-1.541-.902-2.71.398-1.142 1.3-1.487 2.363-1.62 2.098-.292 4.195-.584 6.293-.85.93-.106 1.566-.425 1.991-1.408.797-1.86 1.806-3.639 2.682-5.472.504-1.036 1.062-1.965 2.39-1.965 1.327-.027 1.911.876 2.416 1.912.93 1.913 1.938 3.772 2.788 5.711.345.744.796 1.063 1.566 1.142 2.151.266 4.275.611 6.426.903 1.168.16 2.177.452 2.576 1.727.398 1.222-.266 2.019-1.062 2.789-1.54 1.46-3.054 2.948-4.594 4.41-.61.557-.85 1.062-.664 1.938.478 2.099.797 4.25 1.142 6.375.16 1.036.16 2.046-.797 2.763-1.009.744-1.965.478-2.974-.053-1.752-.93-3.557-1.753-5.257-2.79-1.062-.637-1.912-.69-3.027-.026-1.885 1.116-3.876 2.099-5.868 3.055-1.752.823-3.345-.292-3.292-2.47zM21.837 50.58c1.7 1.86 3.372 3.799 5.151 5.605.717.744.983 1.408.77 2.47-.504 2.497-.876 5.02-1.354 7.783 1.938-1.01 3.77-1.727 5.364-2.816 2.097-1.407 3.93-1.434 6.027-.026 1.593 1.062 3.425 1.806 5.364 2.815-.452-2.762-.797-5.259-1.328-7.703-.239-1.115.08-1.78.823-2.576 1.78-1.833 3.425-3.799 5.018-5.578-1.911-.266-4.248-.69-6.611-.93-1.487-.133-2.416-.69-2.974-2.098-.61-1.541-1.46-3.002-2.204-4.516-.318-.638-.637-1.275-1.062-2.098-1.221 2.443-2.416 4.542-3.372 6.773-.584 1.355-1.487 1.78-2.814 1.939-2.364.266-4.727.664-6.798.956z"/></g><g><path d="M55.745 37.466c-.982 1.992-1.752 3.718-2.708 5.365-.318.558-1.035 1.09-1.646 1.222a61.97 61.97 0 0 1-6.293.956c-.478.053-1.301-.425-1.487-.85-.345-.823.345-1.275 1.142-1.407 1.646-.24 3.319-.505 4.992-.664.902-.107 1.487-.479 1.858-1.355.638-1.488 1.434-2.922 2.151-4.383.425-.85 1.062-1.594 2.045-1.355.716.186 1.513.744 1.885 1.355.93 1.488 1.566 3.161 2.443 4.702.239.425.77.823 1.247.903 1.647.345 3.32.558 4.966.77 1.088.133 2.018.452 2.363 1.594.345 1.089-.292 1.833-1.036 2.55-1.194 1.115-2.416 2.204-3.531 3.426-.345.372-.531 1.063-.478 1.567.186 1.674.558 3.32.823 4.968.16.956.133 1.886-.77 2.497-.876.637-1.726.398-2.602-.08-1.513-.824-3.027-1.647-4.594-2.364-.424-.213-1.115-.213-1.566 0-1.567.717-3.08 1.54-4.594 2.364-.717.372-1.487.637-1.964-.24-.452-.85.106-1.38.876-1.779a199.258 199.258 0 0 0 5.284-2.762c.823-.452 1.54-.452 2.363 0 1.646.93 3.345 1.753 5.284 2.789-.346-2.072-.585-3.932-.983-5.764-.239-1.01.053-1.647.744-2.338 1.3-1.301 2.522-2.71 3.823-4.117-1.354-.213-2.814-.558-4.328-.638-1.805-.08-2.92-.796-3.558-2.496-.53-1.488-1.327-2.816-2.15-4.436z"/></g><g><path d="M13.85 37.483c-.982 1.94-1.832 3.586-2.629 5.26-.398.823-.902 1.328-1.858 1.434-1.885.212-3.744.531-6.08.876 1.141 1.063 1.99 1.993 2.973 2.71 1.965 1.408 2.629 3.108 1.806 5.472-.398 1.195-.425 2.497-.664 3.958 1.912-.983 3.611-1.966 5.364-2.736.637-.266 1.566-.266 2.177 0 1.779.77 3.452 1.753 5.178 2.656.743.398 1.513.85 1.035 1.806-.531 1.063-1.407.584-2.15.186-1.328-.69-2.709-1.328-3.983-2.098-.877-.532-1.567-.479-2.417.026-1.46.85-2.947 1.594-4.46 2.338-1.753.85-3.293-.186-3.08-2.125.212-1.833.637-3.666.876-5.499.053-.478-.133-1.115-.452-1.46-1.115-1.196-2.336-2.312-3.531-3.427-.77-.718-1.434-1.488-1.036-2.657.399-1.142 1.354-1.38 2.417-1.514 1.62-.186 3.239-.398 4.832-.743.505-.107 1.062-.558 1.328-1.01.796-1.408 1.486-2.895 2.203-4.383.452-.93.983-1.673 2.151-1.673 1.168.027 1.673.797 2.124 1.727.69 1.46 1.408 2.948 2.204 4.382.24.425.77.824 1.222.93 1.699.345 3.398.531 5.098.77.85.133 1.672.32 1.486 1.408-.185 1.09-1.035.983-1.885.85-1.912-.292-3.823-.637-5.762-.823-1.035-.107-1.54-.611-1.938-1.514-.743-1.62-1.593-3.24-2.549-5.127z"/></g><g><path d="M28.48 54.194c-.239-.24-.903-.638-.93-1.09-.026-.371.691-1.195 1.036-1.168 2.841.106 4.408-1.355 5.258-3.905.106-.318.982-.372 1.513-.531.16.505.584 1.09.425 1.46-.558 1.382-1.275 2.71-1.992 4.012-.159.266-.53.505-.823.558-1.354.265-2.708.425-4.487.664z"/></g></g></g></svg>