<svg xmlns="http://www.w3.org/2000/svg" width="80" height="60" viewBox="0 0 80 60"><g><g><g/><g><path d="M73.576 55.173l-3.292 1.838-5.852-10.109-5.12 5.698-.549-19.667L75.221 43.41l-7.315 1.654zm5.12-11.212L57.3 30.36l.914 25.548 6.035-6.8 5.486 9.741 5.67-3.308-5.487-9.742z"/></g><g/><g><path d="M4.814 31.83c-.365 0-.914.368-.914.919v20.034c0 .368.366.735.914.735.366 0 .915-.367.915-.919V32.566c-.183-.367-.549-.735-.915-.735z"/></g><g/><g><path d="M12.684 27.97c-.365 0-.914.368-.914.919v24.078c0 .551.366.919.914.919.366 0 .915-.368.915-.92v-24.26c0-.368-.549-.736-.915-.736z"/></g><g/><g><path d="M20.544 24.11c-.365 0-.914.368-.914.919v27.754c0 .551.366.919.914.919.366 0 .915-.368.915-.92V25.03c0-.551-.366-.919-.915-.919z"/></g><g/><g><path d="M28.404 20.62c-.365 0-.914.368-.914.919v31.246c0 .552.366.92.914.92.366 0 .915-.369.915-.92V21.54c0-.551-.366-.919-.915-.919z"/></g><g/><g><path d="M36.454 26.13c-.365 0-.914.368-.914.919v25.732c0 .551.366.92.914.92.366 0 .915-.369.915-.92V27.05c-.183-.551-.549-.919-.915-.919z"/></g><g/><g><path d="M45.054 28.71c-.365 0-.914.368-.914.919v23.159c0 .551.366.919.914.919.366 0 .915-.368.915-.92V29.63c-.183-.551-.549-.919-.915-.919z"/></g><g/><g><path d="M59.31 20.619v6.065c0 .552.366.92.914.92.549 0 .915-.368.915-.92V20.62c0-.551-.366-.919-.915-.919-.548 0-.914.368-.914.919z"/></g><g/><g><path d="M52.184 32.57c-.365 0-.914.368-.914.919v19.3c0 .55.366.918.914.918.366 0 .915-.368.915-.919V33.49c0-.551-.366-.919-.915-.919z"/></g><g/><g><path d="M67.18 15.469v16.174c0 .552.366.92.914.92.549 0 .915-.368.915-.92V15.47c0-.551-.366-.919-.915-.919-.548 0-.914.368-.914.919z"/></g><g/><g><path d="M47.79 24.48c-1.462 0-2.742-1.286-2.742-2.757 0-1.47 1.28-2.757 2.743-2.757 1.463 0 2.743 1.287 2.743 2.757 0 1.47-1.097 2.757-2.743 2.757zM25.116 13.636c-1.463 0-2.743-1.287-2.743-2.757 0-1.47 1.28-2.757 2.743-2.757 1.463 0 2.743 1.287 2.743 2.757 0 1.654-1.097 2.757-2.743 2.757zm44.437-9.925l-.183 2.573c0 .551.366.919.732.919s.731-.368.914-.735l.183-4.595c0-.552-.366-.92-.731-.92L65.895.77c-.549 0-.914.368-.914.735 0 .552.365.92.731.92l2.743.183-17.738 16.174c-.732-.735-1.83-1.102-2.743-1.102-1.463 0-2.743.735-3.658 1.838l-14.812-6.985V10.88c0-2.39-2.012-4.411-4.39-4.411-2.377 0-4.388 2.022-4.388 4.411 0 .735.183 1.47.549 2.206L.793 28.892c-.366.367-.366.735-.183 1.102.183.184.366.368.732.368.182 0 .365 0 .548-.184l20.665-15.99a4.477 4.477 0 0 0 2.743.918 4.518 4.518 0 0 0 3.474-1.654l14.995 6.985c0 .367-.182.551-.182.919 0 2.39 2.011 4.41 4.388 4.41 2.378 0 4.39-2.02 4.39-4.41-.183-.368-.366-1.103-.55-1.655z"/></g><g/></g></g></svg>