<svg xmlns="http://www.w3.org/2000/svg" width="62" height="62" viewBox="0 0 62 62"><g><g><g/><g><path d="M21.354 61.906H6.938c-2.263 0-3.574-1.048-3.907-3.31C2.054 51.805 1.1 45.018.147 38.23c-.143-1.072.12-2.048.882-2.834.048-.048.143-.096.167-.167 1.62-3.716 5.075-4.311 8.483-5.002a27.676 27.676 0 0 0 3.67-.953c1.262-.405 1.548-1.643.642-2.667-1.763-2.073-3.216-4.383-3.43-7.05-.263-3.264-.477-6.646.047-9.838C11.56 4.098 16.898.406 22.45.954A11.105 11.105 0 0 1 32.459 11.72c.072 2.644.024 5.335-.31 7.955-.333 2.549-1.62 4.788-3.288 6.741-1.096 1.286-.834 2.477.763 2.954 1.81.524 3.693.905 5.552 1.31 2.645.571 4.67 1.786 6.266 4.215 1.216 1.858 1.097 3.526.834 5.384-.857 6.073-1.715 12.171-2.573 18.245-.334 2.334-1.597 3.382-3.932 3.382H21.354zm.096-25.677H3.936c-1.406 0-2.025.62-1.859 1.834.93 6.717 1.883 13.41 2.836 20.127.19 1.382.715 1.81 2.144 1.81h28.57c1.525 0 1.954-.31 2.169-1.881.953-6.574 1.882-13.172 2.812-19.77.214-1.548-.31-2.12-1.883-2.12H21.45zM16.684 9.22c-.19.381-.31.524-.334.667-.262 2.382-1.239 4.216-3.693 5.002-.214.071-.429.452-.453.69-.262 4.24 1.096 7.884 4.266 10.743 1.93 1.738 4.193 2.525 6.814 1.738 4.432-1.333 8.054-7.693 7.149-12.6-2.169-.19-3.145-1.62-3.455-3.691-4.146 1.905-7.34.38-10.294-2.55zm-4.456 3.81c.5-.309.93-.404 1.049-.666.428-.857.857-1.739 1.12-2.668.285-.976.643-1.786 1.667-2.143 1.001-.334 1.764.047 2.479.714.357.357.738.715 1.143 1.024 1.907 1.5 3.98 1.787 6.243.81 2.002-.857 2.717-.429 3.05 1.715.12.834.382 1.596 1.573 1.548.215-3.882-1.025-7.026-4.313-9.098-3.217-2.001-6.576-1.977-9.77.047-3.05 1.93-4.431 4.812-4.24 8.718zm4.146 21.2h9.913v-5.455c-3.336 2.048-6.6 1.977-9.913-.024v5.479zm21.85.023c-2.93-2.239-6.623-1.929-9.888-3.263v3.263h9.889zm-23.851-3.144c-7.244 1.406-8.983 1.953-9.817 3.12h9.817v-3.12z"/></g><g><path d="M50.404 36.756c.333-2.406.643-4.716.953-7.146h-6.362c0 .786.119 1.596-.048 2.335-.095.428-.596.762-.93 1.12-.31-.358-.81-.668-.881-1.073-.143-.762-.048-1.548-.048-2.477-1.12 0-2.12.095-3.074-.047-.405-.048-.762-.572-1.143-.882.381-.333.715-.881 1.12-.929.953-.143 1.954-.047 3.026-.047v-6.003c-1.644-.357-3.288-.714-5.123-1.095-.286 1.429-.548 2.834-.834 4.263-.048.262.024.62-.12.81-.285.357-.69.596-1.048.905-.262-.357-.81-.762-.762-1.095.19-1.644.5-3.287.858-4.907.119-.572.19-.953-.43-1.263-.667-.31-1.358-.762-.81-1.643.5-.81 1.168-.381 1.764-.024.095.048.214.048.381.095.596-1.024 1.168-2.024 1.93-3.287-.69.31-1.191.5-1.668.763-.62.333-1.263.547-1.644-.191-.429-.81.19-1.215.834-1.548 2.597-1.31 5.361-1.953 8.268-1.81 9.746.476 16.8 8.098 16.513 17.864-.238 8.36-7.577 15.887-15.822 16.149-.429.024-.857-.5-1.286-.762.214-.334.38-.905.667-.977 2.74-.62 3.693-2.858 4.956-5.216-1.048-.286-1.978-.548-2.907-.762-.691-.167-1.263-.405-1.096-1.239.143-.834.81-.786 1.406-.667 1 .19 1.978.453 3.36.786zm8.768-9.218c-.357-3.835-1.787-7.05-4.48-9.694-.976.643-1.882 1.239-2.668 1.739.429 2.715.858 5.335 1.263 7.955h5.885zm-4.36 11.743c2.573-2.692 4.074-5.86 4.337-9.67h-5.886c-.214 1.738-.357 3.477-.667 5.192-.5 2.858-.548 2.858 1.93 4.43.048.024.095 0 .286.048zM45.09 21.607v5.955h6.267c-.382-2.43-.739-4.764-1.096-7.05-1.859.405-3.432.738-5.171 1.095zm-.024-1.929c1.525-.333 2.955-.667 4.456-1-1.048-2.24-2.025-4.193-4.456-5.05v6.05zm-2.073-.024V13.58c-2.264 1.096-3.384 2.906-4.36 5.121 1.524.334 2.883.644 4.36.953zm10.365-3.192c-1.406-.762-2.525-1.381-3.955-2.143.739 1.357 1.287 2.334 1.906 3.453.596-.38 1.168-.762 2.05-1.31zm-1.977 22.986c-.596 1.095-1.097 2.048-1.62 3 .047.072.094.12.142.191 1.072-.619 2.145-1.238 3.408-1.977-.787-.476-1.31-.81-1.93-1.214z"/></g><g><path d="M17.47 48.093c0-2 1.716-3.597 3.837-3.573C23.38 44.568 25 46.116 25 48.093c0 2.025-1.692 3.573-3.836 3.55-2.097 0-3.718-1.573-3.694-3.55zm5.576-.024c-.024-.881-.882-1.62-1.859-1.596-.977 0-1.81.763-1.81 1.644 0 .953.857 1.691 1.906 1.643 1.048-.047 1.787-.786 1.763-1.69z"/></g><g><path d="M19.802 19.158c-.143.166-.43.667-.763.738-.333.048-.738-.357-1.072-.62-.238-.19-.405-.5-.62-.761-.238.262-.428.571-.69.786-.334.262-.81.667-1.097.595-.31-.095-.643-.667-.667-1.048-.071-1.19 1.096-2.263 2.383-2.287 1.287-.047 2.526 1.072 2.526 2.597z"/></g><g><path d="M27.862 19.175c-.143.143-.429.667-.762.715-.334.024-.739-.405-1.073-.667-.238-.19-.428-.476-.643-.714-.19.238-.381.547-.62.738-.333.262-.738.476-1.095.69-.239-.404-.668-.81-.668-1.214-.047-1.215 1.192-2.239 2.478-2.191 1.287.023 2.407 1.143 2.383 2.643z"/></g><g><path d="M21.406 26.112c-.882-.405-1.764-.691-2.502-1.167-.286-.19-.239-.858-.334-1.334.429-.095 1-.405 1.24-.238 1.071.69 2.024.714 3.073 0 .238-.167 1.025.023 1.191.285.167.262.048 1.048-.214 1.215-.691.5-1.549.81-2.454 1.239z"/></g></g></g></svg>