<svg xmlns="http://www.w3.org/2000/svg" width="41" height="73" viewBox="0 0 41 73"><g><g transform="rotate(180 21 36.19)"><g/><g><path fill="#363330" d="M5.04 8.57v1.604h5.343V4.78H8.795v3.79z"/></g><g><path fill="#363330" d="M23.962 14.25H11.11v1.604h12.852z"/></g><g><path fill="#363330" d="M30.749 18.34H11.11v1.604h19.639z"/></g><g><path fill="#363330" d="M30.749 26.35H11.11v1.604h19.639z"/></g><g><path fill="#363330" d="M30.749 30.44H11.11v1.604h19.639z"/></g><g><path fill="#363330" d="M28.15 22.42H11.11v1.604h17.04z"/></g><g><path fill="#363330" d="M37.679.69H7.93L1 7.688v41.988c0 1.75 1.444 3.207 3.177 3.207h6.642v-1.604H4.177c-.867 0-1.589-.729-1.589-1.603V8.27L8.51 2.294h29.17c.866 0 1.588.729 1.588 1.603V49.53c0 .875-.722 1.604-1.588 1.604h-6.643v1.603h6.643c1.732 0 3.177-1.458 3.177-3.207V3.897C41 2.147 39.556.69 37.679.69z"/></g><g><path fill="#363330" d="M21.798 42.39H20.21v14.87h1.588z"/></g><g><path fill="#363330" d="M29.298 39.91H27.71v15.6h1.588z"/></g><g><path fill="#363330" d="M14.138 43.85H12.55v8.456h1.588z"/></g><g><path fill="#363330" d="M14.138 53.76H12.55v1.75h1.588z"/></g><g><path fill="#363330" d="M14.138 40.35H12.55v1.75h1.588z"/></g><g><path fill="#363330" d="M14.138 37H12.55v1.75h1.588z"/></g><g><path fill="#363330" d="M25.548 42.83H23.96v1.75h1.588z"/></g><g><path fill="#363330" d="M25.548 39.62H23.96v1.75h1.588z"/></g><g><path fill="#363330" d="M17.898 35.1H16.31v1.75h1.588z"/></g><g><path fill="#363330" d="M29.298 36.56H27.71v1.75h1.588z"/></g><g><path fill="#363330" d="M30.888 61.193h-5.343v-14.87h-1.589v16.474h4.766l-7.654 6.998-7.653-6.998h4.765V38.45h-1.588v22.743h-5.343c-.29 0-.722.146-.722.584-.145.291 0 .728.288.874l9.82 8.893c.144.146.289.146.578.146.144 0 .433 0 .577-.146l9.82-8.893c.288-.291.288-.583.288-.875-.433-.437-.722-.583-1.01-.583z"/></g></g></g></svg>