<svg xmlns="http://www.w3.org/2000/svg" width="74" height="74" viewBox="0 0 74 74"><g><g><g/><g><path d="M23.243 73.44c-1.966 0-4.54-3.867-4.654-3.979-.633-.621-.944-.941.2-2.393 1.829-2.316 4.178-4.168 6.264-6.256 2.118-2.121 4.221-4.259 6.349-6.372.63-.626 1.279-1.234 1.925-1.845.34-.322.689-.634 1.034-.951.105-.097.333-.147.316-.288-.017-.137-.316-.05-.374-.174-.904-1.944-2.166-3.816-2.47-5.939-.253-1.764.583-3.516.862-5.276.123-.777.23-1.557.344-2.335.01-.067.083-.16.029-.202-.256-.195-.549-.36-.862-.432-.08-.019-.096.134-.144.201-.095.135-.194.267-.287.404-.214.315-.458.613-.632.951-3.38 6.612-6.127 13.574-10.026 19.894-.813 1.317-2.55 1.756-3.85 2.595-.048.03-.12.022-.172 0-.986-.422-2.177-.564-2.93-1.327-.622-.628-1.081-1.651-.863-2.508 1.365-5.35 3.653-10.42 5.488-15.626.004-.013.021-.018.029-.029a.284.284 0 0 0 .028-.058c.28-.749.554-1.5.833-2.249.133-.356.27-.71.403-1.066.02-.057.095-.126.057-.173-.202-.247-.43-.499-.718-.635-.086-.04-.138.132-.201.202-.32.353-.63.714-.948 1.067-.922 1.019-2.691 3.528-4.51 3.517-.888-.005-1.728-.586-2.385-1.182-.708-.64-13.617-8.968-10.084-14.963 1.701-2.887 4.576-4.912 7.096-7.121.686-.602 1.53-1.25 2.442-1.24 1.625.019 3.17 1.947 4.137 2.97.177.187.342.386.517.576.046.05.077.133.144.144.072.012.136-.053.2-.086.443-.226.876-.473 1.322-.692.828-.406 1.716-.698 2.5-1.182a146.566 146.566 0 0 0 8.044-5.334c1.025-.73 1.905-1.645 2.873-2.45.488-.407 1-.782 1.494-1.182.063-.052.16-.093.172-.173.012-.077-.113-.125-.115-.202-.056-2.104-.787-4.34-.057-6.314.103-.28 3.724-4.073 5.487-3.287 2.098.936 5.36 1.54 5.746 3.806.518 3.05-2.375 5.715-3.65 8.534-.073.164-.655.148-.085.432 3.304 1.647 3.592 2.594 6.694 1.326.765-.313 1.404-.873 2.097-1.326.936-.612 1.125-1.327 2.844-1.153 2.534.256 6.005 3.492 2.24 6.602-3.039 2.512-7.33 2.91-11.031 4.267-.189.07-.402 0-.603 0-.058 0-.127-.034-.173 0-.72.53-1.592.934-2.097 1.672-.525.768-.565 1.772-.862 2.653-.134.397-.287.788-.43 1.182-.029.077-.118.155-.087.23.033.08.175.05.23.116 1.367 1.631 3.15 3.017 4.022 4.959.479 1.067-.494 4.29-.776 5.564a284.01 284.01 0 0 0-1.12 5.276c-.058.285-.335 1.055-.115.865 1.932-1.665 3.541-3.674 5.4-5.42.521-.488 1.011-1.263 1.725-1.269.7-.006 1.178.768 1.695 1.24 1 .916 1.896 1.941 2.844 2.912.479.49.868 1.853 1.436 1.47 2.864-1.928 4.949-4.82 7.297-7.352.08-.085-.19-.137-.287-.201-.151-.1-.311-.185-.46-.289-.563-.391-1.897-1.12-1.608-2.133.134-.47.732-.717 1.206-.836 3.936-.986 7.946-1.647 11.923-2.45.417-.085.996.004 1.264.374.235.325.295.786.23 1.182-.657 3.966-1.357 7.935-2.385 11.82-.146.554-.543 1.162-1.092 1.327-.677.204-2.128-1.625-2.327-1.845-.187-.207-.363-.423-.545-.635-.067-.077-.126-.298-.202-.23-1.248 1.118-2.352 2.386-3.533 3.575-2.563 2.579-5.069 5.217-7.7 7.727-.467.446-.933 1.112-1.58 1.124-.62.011-1.065-.649-1.522-1.067-1.042-.952-1.976-2.015-2.96-3.027-.539-.555-.93-2.043-1.608-1.672-2.292 1.252-3.677 3.71-5.516 5.564l-.69.692c-.067.067-.138.13-.2.202-.015.016-.02.039-.03.058-.037.067-.06.147-.114.201-5.636 5.608-11.192 11.299-16.95 16.78-.213.202-.57.173-.862.173zm-2.155-4.728l2.24 2.018s.403-.375.518-.49c.259-.23.546-.52.804-.779 1.38-1.384 7.556-7.467 11.664-11.503l1.954-1.903.029-.058c.115-.23.287-.49.546-.75 1.062-1.066 2.125-2.133 3.188-3.17l2.155-2.163 1.781-1.788c.661-.663 1.178-1.095 1.58-1.095.345 0 .776.288 1.523 1.038.948.951 1.867 1.931 2.959 3.056a87.398 87.398 0 0 0 1.666 1.73l.259.26.201-.29c.172-.259.316-.518.46-.749.287-.461.517-.836.804-1.153 2.212-2.278 4.51-4.555 6.723-6.775l2.097-2.105c1.034-1.038 1.551-1.557 2.04-1.557.46 0 1.062.433 2.154 1.182l.374.26 1.637-8.217-7.9 1.586.086.317c.086.26.201.519.287.778.201.49.403.952.345 1.326-.086.433-.546.894-.977 1.327a2.867 2.867 0 0 1-.316.288c-2.24 2.278-4.51 4.526-7.01 7.035-.603.605-.976.865-1.321.865-.316 0-.69-.231-1.264-.808-1.063-1.037-2.069-2.104-3.074-3.142-.402-.433-.805-.836-1.207-1.24l-.2-.202zm5.545-38c-.92 0-1.437.375-1.753 1.27-.747 2.017-1.522 4.035-2.27 5.996-.603 1.586-1.206 3.171-1.78 4.757-.173.432-.316.75-.518.951l-.028.03-.03.057c-1.177 3.43-4.222 11.532-4.423 12.08-.23.548-.805 2.047.718 2.71.259.115.517.173.747.173.718 0 1.264-.461 1.752-1.413 4.08-8.159 7.269-14.444 10.285-20.383l.029-.058c.316-.634.862-1.7 1.35-1.816a7.936 7.936 0 0 1 1.724-.173c.747 0 1.551.058 2.557.23.172.087.574.923.517 1.413-.23 1.845-.546 3.69-.833 5.478-.201 1.269-.431 2.595-.603 3.892-.03.145-.058.289-.087.462-.172.836-.43 2.076 1.006 2.45.2.058.373.058.517.058 1.092 0 1.322-1.038 1.494-1.816.029-.173.086-.346.115-.49.833-2.941 1.724-6.084 2.758-9.832.488-1.758.316-3.258-.489-4.324-.804-1.067-2.24-1.644-4.108-1.644h-4.884c-1.465 0-2.643 0-3.706-.029zM2.587 28.348l11.376 11.446 3.362-3.604-.23-.201c-.201-.173-.431-.346-.632-.52-.517-.432-1.063-.864-1.552-1.326-.488-.49-1.005-.951-1.867-.951-.172 0-.374.029-.575.058a2.5 2.5 0 0 1-.46.057c-.89 0-1.78-.432-2.47-1.21-.718-.808-1.063-1.846-.948-2.797.086-.75 0-1.298-.23-1.644-.488-.692-1.063-1.297-1.58-1.845a9.053 9.053 0 0 0-.488-.519l-.201-.26zm9.595-3.027c.345 0 .69.288 1.408 1.01l1.35 1.354.173.173c.804.807 1.235 1.24 1.321 1.644.058.374-.201.865-.718 1.845l-.086.173.632.663 2.327 2.422 3.476-2.941-11.348-11.33-3.131 2.68 2.786 3.316.23-.144c.833-.605 1.235-.865 1.58-.865zm-.258 3.085c-.69.663-1.063 1.067-1.006 1.5.058.403.517.662 1.235 1.037l.173.087 1.494-1.24-1.695-1.586zm9.624-1.787l1.925 2.479.976-3.604zm12.21-13.522c-2.155 0-3.936 1.326-4.54 3.344-.775 2.624-1.436 5.219-2.126 7.957a168.23 168.23 0 0 1-.919 3.633l-.086.375h4.453c1.178 0 2.758 0 4.31-.058.488 0 1.12-.576 1.292-1.038.632-1.614 1.235-3.402 1.896-5.449.316-1.009.804-1.355 1.81-1.355h.23c.46.03.92.03 1.379.03 1.264 0 2.5-.087 3.677-.29 2.413-.403 4.654-1.527 6.493-3.2.345-.317.402-.836.488-1.354l.086-.606.087-.375-.374.03h-.747c-.345 0-.718 0-1.063.114-.345.087-.603.318-.862.548-.143.116-.258.23-.373.317-1.724 1.182-3.333 1.73-4.913 1.73a6.17 6.17 0 0 1-2.154-.375c-1.437-.519-2.96-1.441-4.51-2.71-1.035-.807-2.3-1.268-3.535-1.268zm-8.246 6.17c-.546.23-1.091.46-1.637.692-1.523.634-3.132 1.297-4.654 2.018-.374.173-.546.576-.718.98-.087.173-.144.317-.23.432l-.173.26.259.144c.144.087.287.173.46.288.344.231.718.49 1.063.49h.143c.632-.115 1.207-.374 1.781-.605.431-.173.89-.346 1.322-.49 2.183-.605 2.614-2.306 2.73-3.892l.028-.461zM37.55 2.747c-1.034 0-2.04.403-2.758 1.153a3.974 3.974 0 0 0-1.15 2.825c0 2.22 1.724 3.95 3.879 3.979h.029c2.126 0 3.907-1.759 3.907-3.921.029-2.22-1.638-3.979-3.821-4.037h-.086z"/></g></g></g></svg>